<?xml version="1.0" encoding="UTF-8" standalone="no"?>
<!DOCTYPE svg PUBLIC "-//W3C//DTD SVG 1.1//EN" "http://www.w3.org/Graphics/SVG/1.1/DTD/svg11.dtd">
<!-- Generated by Microsoft Visio, SVG Export EXAMPLE_TYPE_SYSTEM.svg Page-1 -->
<svg xmlns="http://www.w3.org/2000/svg" xmlns:xlink="http://www.w3.org/1999/xlink" xmlns:ev="http://www.w3.org/2001/xml-events"
		xmlns:v="http://schemas.microsoft.com/visio/2003/SVGExtensions/" width="11in" height="8.5in" viewBox="0 0 792 612"
		xml:space="preserve" color-interpolation-filters="sRGB" class="st11">
	<v:documentProperties v:langID="1033" v:viewMarkup="false">
		<v:userDefs>
			<v:ud v:nameU="msvNoAutoConnect" v:prompt="" v:val="VT0(0):26"/>
		</v:userDefs>
	</v:documentProperties>

	<style type="text/css">
	<![CDATA[
		.st1 {visibility:visible}
		.st2 {fill:#000000;fill-opacity:0.4;filter:url(#filter_2.6666667461395);stroke:#000000;stroke-linecap:round;stroke-linejoin:round;stroke-opacity:0.4}
		.st3 {fill:#4271c6;stroke:#ffffff;stroke-linecap:round;stroke-linejoin:round;stroke-width:0.5}
		.st4 {fill:#4271c6;stroke:#4271c6;stroke-linecap:round;stroke-linejoin:round;stroke-width:0.5}
		.st5 {fill:#ffffff;font-family:Calibri;font-size:1.00001em;font-weight:bold}
		.st6 {fill:#ffffff;stroke:#4271c6;stroke-linecap:round;stroke-linejoin:round;stroke-width:0.5}
		.st7 {fill:none;filter:url(#filter_2.6666667461395);marker-end:url(#mrkr4-19);stroke:#000000;stroke-linecap:round;stroke-linejoin:round;stroke-opacity:0.4}
		.st8 {fill:#000000;fill-opacity:0.4;stroke:#000000;stroke-opacity:0.4;stroke-width:0.22935779816514}
		.st9 {marker-end:url(#mrkr4-25);stroke:#6ca43d;stroke-linecap:round;stroke-linejoin:round;stroke-width:0.75}
		.st10 {fill:#6ca43d;fill-opacity:1;stroke:#6ca43d;stroke-opacity:1;stroke-width:0.22935779816514}
		.st11 {fill:none;fill-rule:evenodd;font-size:12px;overflow:visible;stroke-linecap:square;stroke-miterlimit:3}
	]]>
	</style>

	<defs id="Markers">
		<g id="lend4">
			<path d="M 2 1 L 0 0 L 2 -1 L 2 1 " style="stroke:none"/>
		</g>
		<marker id="mrkr4-19" class="st8" v:arrowType="4" v:arrowSize="2" v:setback="8.72" refX="-8.72" orient="auto"
				markerUnits="strokeWidth" overflow="visible">
			<use xlink:href="#lend4" transform="scale(-4.36,-4.36) "/>
		</marker>
		<marker id="mrkr4-25" class="st10" v:arrowType="4" v:arrowSize="2" v:setback="8.72" refX="-8.72" orient="auto"
				markerUnits="strokeWidth" overflow="visible">
			<use xlink:href="#lend4" transform="scale(-4.36,-4.36) "/>
		</marker>
	</defs>
	<defs id="Filters">
		<filter id="filter_2.6666667461395">
			<feGaussianBlur stdDeviation="2.6666667461395"/>
		</filter>
	</defs>
	<g v:mID="0" v:index="1" v:groupContext="foregroundPage">
		<v:userDefs>
			<v:ud v:nameU="msvThemeOrder" v:val="VT0(0):26"/>
		</v:userDefs>
		<title>Page-1</title>
		<v:pageProperties v:drawingScale="1" v:pageScale="1" v:drawingUnits="0" v:shadowOffsetX="9" v:shadowOffsetY="-9"/>
		<v:layer v:name="Connector" v:index="0"/>
		<g id="group1-1" transform="translate(357.75,-391.402)" v:mID="1" v:groupContext="group">
			<v:userDefs>
				<v:ud v:nameU="visVersion" v:prompt="" v:val="VT0(15):26"/>
			</v:userDefs>
			<title>State</title>
			<g id="shape1-2" v:mID="1" v:groupContext="groupContent">
				<g id="shadow1-3" v:groupContext="shadow" v:shadowOffsetX="0" v:shadowOffsetY="-3" v:shadowType="1"
						transform="matrix(1,0,0,1,0,3)" class="st1">
					<rect x="0" y="567.196" width="72" height="44.8037" rx="9" ry="9" class="st2"/>
				</g>
				<rect x="0" y="567.196" width="72" height="44.8037" rx="9" ry="9" class="st3"/>
			</g>
			<g id="shape2-7" v:mID="2" v:groupContext="shape" transform="translate(0,-22.4)">
				<title>Sheet.2</title>
				<desc>ANIMAL</desc>
				<v:userDefs>
					<v:ud v:nameU="UmlRole" v:prompt="" v:val="VT4(Title)"/>
				</v:userDefs>
				<v:textBlock v:margins="rect(4,4,4,4)"/>
				<v:textRect cx="36" cy="600.798" width="72" height="22.4037"/>
				<path d="M9 612 L63 612 A9 9 -180 0 0 72 603 L72 598.6 A9 9 -180 0 0 63 589.6 L9 589.6 A9 9 -180 0 0 0 598.6 L0 603
							 A9 9 -180 0 0 9 612 Z" class="st4"/>
				<text x="15.4" y="604.4" class="st5" v:langID="1033"><v:paragraph v:horizAlign="1"/><v:tabList/>ANIMAL</text>			</g>
			<g id="shape3-10" v:mID="3" v:groupContext="shape">
				<title>Sheet.3</title>
				<v:userDefs>
					<v:ud v:nameU="UmlRole" v:prompt="" v:val="VT4(Body)"/>
				</v:userDefs>
				<path d="M9 612 L63 612 A9 9 -180 0 0 72 603 L72 598.6 A9 9 -180 0 0 63 589.6 L9 589.6 A9 9 -180 0 0 0 598.6 L0 603
							 A9 9 -180 0 0 9 612 Z" class="st6"/>
			</g>
		</g>
		<g id="shape7-12" v:mID="7" v:groupContext="shape" v:layerMember="0" transform="translate(384.75,-391.402)">
			<title>Dynamic connector</title>
			<g id="shadow7-13" v:groupContext="shadow" v:shadowOffsetX="0" v:shadowOffsetY="-3" v:shadowType="1"
					transform="matrix(1,0,0,1,0,3)" class="st1">
				<path d="M9 612 L9 677.46" class="st7"/>
			</g>
			<path d="M9 612 L9 677.46" class="st9"/>
		</g>
		<g id="group4-26" transform="translate(357.75,-274.598)" v:mID="4" v:groupContext="group">
			<v:userDefs>
				<v:ud v:nameU="visVersion" v:prompt="" v:val="VT0(15):26"/>
			</v:userDefs>
			<title>State.4</title>
			<g id="shape4-27" v:mID="4" v:groupContext="groupContent">
				<g id="shadow4-28" v:groupContext="shadow" v:shadowOffsetX="0" v:shadowOffsetY="-3" v:shadowType="1"
						transform="matrix(1,0,0,1,0,3)" class="st1">
					<rect x="0" y="567.196" width="72" height="44.8037" rx="9" ry="9" class="st2"/>
				</g>
				<rect x="0" y="567.196" width="72" height="44.8037" rx="9" ry="9" class="st3"/>
			</g>
			<g id="shape5-32" v:mID="5" v:groupContext="shape" transform="translate(0,-22.4)">
				<title>Sheet.5</title>
				<desc>BIRD</desc>
				<v:userDefs>
					<v:ud v:nameU="UmlRole" v:prompt="" v:val="VT4(Title)"/>
				</v:userDefs>
				<v:textBlock v:margins="rect(4,4,4,4)"/>
				<v:textRect cx="36" cy="600.798" width="72" height="22.4037"/>
				<path d="M9 612 L63 612 A9 9 -180 0 0 72 603 L72 598.6 A9 9 -180 0 0 63 589.6 L9 589.6 A9 9 -180 0 0 0 598.6 L0 603
							 A9 9 -180 0 0 9 612 Z" class="st4"/>
				<text x="23.88" y="604.4" class="st5" v:langID="1033"><v:paragraph v:horizAlign="1"/><v:tabList/>BIRD</text>			</g>
			<g id="shape6-35" v:mID="6" v:groupContext="shape">
				<title>Sheet.6</title>
				<v:userDefs>
					<v:ud v:nameU="UmlRole" v:prompt="" v:val="VT4(Body)"/>
				</v:userDefs>
				<path d="M9 612 L63 612 A9 9 -180 0 0 72 603 L72 598.6 A9 9 -180 0 0 63 589.6 L9 589.6 A9 9 -180 0 0 0 598.6 L0 603
							 A9 9 -180 0 0 9 612 Z" class="st6"/>
			</g>
		</g>
		<g id="shape11-37" v:mID="11" v:groupContext="shape" v:layerMember="0" transform="translate(429.75,-413.804)">
			<title>Dynamic connector.11</title>
			<g id="shadow11-38" v:groupContext="shadow" v:shadowOffsetX="0" v:shadowOffsetY="-3" v:shadowType="1"
					transform="matrix(1,0,0,1,0,3)" class="st1">
				<path d="M0 612 L108 612 L108 699.86" class="st7"/>
			</g>
			<path d="M0 612 L108 612 L108 699.86" class="st9"/>
		</g>
		<g id="group8-49" transform="translate(501.75,-274.598)" v:mID="8" v:groupContext="group">
			<v:userDefs>
				<v:ud v:nameU="visVersion" v:prompt="" v:val="VT0(15):26"/>
			</v:userDefs>
			<title>State.8</title>
			<g id="shape8-50" v:mID="8" v:groupContext="groupContent">
				<g id="shadow8-51" v:groupContext="shadow" v:shadowOffsetX="0" v:shadowOffsetY="-3" v:shadowType="1"
						transform="matrix(1,0,0,1,0,3)" class="st1">
					<rect x="0" y="567.196" width="72" height="44.8037" rx="9" ry="9" class="st2"/>
				</g>
				<rect x="0" y="567.196" width="72" height="44.8037" rx="9" ry="9" class="st3"/>
			</g>
			<g id="shape9-55" v:mID="9" v:groupContext="shape" transform="translate(0,-22.4)">
				<title>Sheet.9</title>
				<desc>DOG</desc>
				<v:userDefs>
					<v:ud v:nameU="UmlRole" v:prompt="" v:val="VT4(Title)"/>
				</v:userDefs>
				<v:textBlock v:margins="rect(4,4,4,4)"/>
				<v:textRect cx="36" cy="600.798" width="72" height="22.4037"/>
				<path d="M9 612 L63 612 A9 9 -180 0 0 72 603 L72 598.6 A9 9 -180 0 0 63 589.6 L9 589.6 A9 9 -180 0 0 0 598.6 L0 603
							 A9 9 -180 0 0 9 612 Z" class="st4"/>
				<text x="24.34" y="604.4" class="st5" v:langID="1033"><v:paragraph v:horizAlign="1"/><v:tabList/>DOG</text>			</g>
			<g id="shape10-58" v:mID="10" v:groupContext="shape">
				<title>Sheet.10</title>
				<v:userDefs>
					<v:ud v:nameU="UmlRole" v:prompt="" v:val="VT4(Body)"/>
				</v:userDefs>
				<path d="M9 612 L63 612 A9 9 -180 0 0 72 603 L72 598.6 A9 9 -180 0 0 63 589.6 L9 589.6 A9 9 -180 0 0 0 598.6 L0 603
							 A9 9 -180 0 0 9 612 Z" class="st6"/>
			</g>
		</g>
		<g id="shape15-60" v:mID="15" v:groupContext="shape" v:layerMember="0" transform="translate(357.75,-413.804)">
			<title>Dynamic connector.15</title>
			<g id="shadow15-61" v:groupContext="shadow" v:shadowOffsetX="0" v:shadowOffsetY="-3" v:shadowType="1"
					transform="matrix(1,0,0,1,0,3)" class="st1">
				<path d="M0 612 L-108 612 L-108 699.86" class="st7"/>
			</g>
			<path d="M0 612 L-108 612 L-108 699.86" class="st9"/>
		</g>
		<g id="group12-72" transform="translate(213.75,-274.598)" v:mID="12" v:groupContext="group">
			<v:userDefs>
				<v:ud v:nameU="visVersion" v:prompt="" v:val="VT0(15):26"/>
			</v:userDefs>
			<title>State.12</title>
			<g id="shape12-73" v:mID="12" v:groupContext="groupContent">
				<g id="shadow12-74" v:groupContext="shadow" v:shadowOffsetX="0" v:shadowOffsetY="-3" v:shadowType="1"
						transform="matrix(1,0,0,1,0,3)" class="st1">
					<rect x="0" y="567.196" width="72" height="44.8037" rx="9" ry="9" class="st2"/>
				</g>
				<rect x="0" y="567.196" width="72" height="44.8037" rx="9" ry="9" class="st3"/>
			</g>
			<g id="shape13-78" v:mID="13" v:groupContext="shape" transform="translate(0,-22.4)">
				<title>Sheet.13</title>
				<desc>CAT</desc>
				<v:userDefs>
					<v:ud v:nameU="UmlRole" v:prompt="" v:val="VT4(Title)"/>
				</v:userDefs>
				<v:textBlock v:margins="rect(4,4,4,4)"/>
				<v:textRect cx="36" cy="600.798" width="72" height="22.4037"/>
				<path d="M9 612 L63 612 A9 9 -180 0 0 72 603 L72 598.6 A9 9 -180 0 0 63 589.6 L9 589.6 A9 9 -180 0 0 0 598.6 L0 603
							 A9 9 -180 0 0 9 612 Z" class="st4"/>
				<text x="26.22" y="604.4" class="st5" v:langID="1033"><v:paragraph v:horizAlign="1"/><v:tabList/>CAT</text>			</g>
			<g id="shape14-81" v:mID="14" v:groupContext="shape">
				<title>Sheet.14</title>
				<v:userDefs>
					<v:ud v:nameU="UmlRole" v:prompt="" v:val="VT4(Body)"/>
				</v:userDefs>
				<path d="M9 612 L63 612 A9 9 -180 0 0 72 603 L72 598.6 A9 9 -180 0 0 63 589.6 L9 589.6 A9 9 -180 0 0 0 598.6 L0 603
							 A9 9 -180 0 0 9 612 Z" class="st6"/>
			</g>
		</g>
		<g id="group25-83" transform="translate(213.75,-180)" v:mID="25" v:groupContext="group">
			<v:userDefs>
				<v:ud v:nameU="visVersion" v:prompt="" v:val="VT0(15):26"/>
			</v:userDefs>
			<title>State.25</title>
			<g id="shape25-84" v:mID="25" v:groupContext="groupContent">
				<g id="shadow25-85" v:groupContext="shadow" v:shadowOffsetX="0" v:shadowOffsetY="-3" v:shadowType="1"
						transform="matrix(1,0,0,1,0,3)" class="st1">
					<rect x="0" y="567.196" width="72" height="44.8037" rx="9" ry="9" class="st2"/>
				</g>
				<rect x="0" y="567.196" width="72" height="44.8037" rx="9" ry="9" class="st3"/>
			</g>
			<g id="shape26-89" v:mID="26" v:groupContext="shape" transform="translate(0,-22.4)">
				<title>Sheet.26</title>
				<desc>TABBY</desc>
				<v:userDefs>
					<v:ud v:nameU="UmlRole" v:prompt="" v:val="VT4(Title)"/>
				</v:userDefs>
				<v:textBlock v:margins="rect(4,4,4,4)"/>
				<v:textRect cx="36" cy="600.798" width="72" height="22.4037"/>
				<path d="M9 612 L63 612 A9 9 -180 0 0 72 603 L72 598.6 A9 9 -180 0 0 63 589.6 L9 589.6 A9 9 -180 0 0 0 598.6 L0 603
							 A9 9 -180 0 0 9 612 Z" class="st4"/>
				<text x="19.55" y="604.4" class="st5" v:langID="1033"><v:paragraph v:horizAlign="1"/><v:tabList/>TABBY</text>			</g>
			<g id="shape27-92" v:mID="27" v:groupContext="shape">
				<title>Sheet.27</title>
				<v:userDefs>
					<v:ud v:nameU="UmlRole" v:prompt="" v:val="VT4(Body)"/>
				</v:userDefs>
				<path d="M9 612 L63 612 A9 9 -180 0 0 72 603 L72 598.6 A9 9 -180 0 0 63 589.6 L9 589.6 A9 9 -180 0 0 0 598.6 L0 603
							 A9 9 -180 0 0 9 612 Z" class="st6"/>
			</g>
		</g>
		<g id="group28-94" transform="translate(501.75,-180)" v:mID="28" v:groupContext="group">
			<v:userDefs>
				<v:ud v:nameU="visVersion" v:prompt="" v:val="VT0(15):26"/>
			</v:userDefs>
			<title>State.28</title>
			<g id="shape28-95" v:mID="28" v:groupContext="groupContent">
				<g id="shadow28-96" v:groupContext="shadow" v:shadowOffsetX="0" v:shadowOffsetY="-3" v:shadowType="1"
						transform="matrix(1,0,0,1,0,3)" class="st1">
					<rect x="0" y="567.196" width="72" height="44.8037" rx="9" ry="9" class="st2"/>
				</g>
				<rect x="0" y="567.196" width="72" height="44.8037" rx="9" ry="9" class="st3"/>
			</g>
			<g id="shape29-100" v:mID="29" v:groupContext="shape" transform="translate(0,-22.4)">
				<title>Sheet.29</title>
				<desc>LAB</desc>
				<v:userDefs>
					<v:ud v:nameU="UmlRole" v:prompt="" v:val="VT4(Title)"/>
				</v:userDefs>
				<v:textBlock v:margins="rect(4,4,4,4)"/>
				<v:textRect cx="36" cy="600.798" width="72" height="22.4037"/>
				<path d="M9 612 L63 612 A9 9 -180 0 0 72 603 L72 598.6 A9 9 -180 0 0 63 589.6 L9 589.6 A9 9 -180 0 0 0 598.6 L0 603
							 A9 9 -180 0 0 9 612 Z" class="st4"/>
				<text x="26.46" y="604.4" class="st5" v:langID="1033"><v:paragraph v:horizAlign="1"/><v:tabList/>LAB</text>			</g>
			<g id="shape30-103" v:mID="30" v:groupContext="shape">
				<title>Sheet.30</title>
				<v:userDefs>
					<v:ud v:nameU="UmlRole" v:prompt="" v:val="VT4(Body)"/>
				</v:userDefs>
				<path d="M9 612 L63 612 A9 9 -180 0 0 72 603 L72 598.6 A9 9 -180 0 0 63 589.6 L9 589.6 A9 9 -180 0 0 0 598.6 L0 603
							 A9 9 -180 0 0 9 612 Z" class="st6"/>
			</g>
		</g>
		<g id="shape35-105" v:mID="35" v:groupContext="shape" v:layerMember="0" transform="translate(240.75,-274.598)">
			<title>Dynamic connector.35</title>
			<g id="shadow35-106" v:groupContext="shadow" v:shadowOffsetX="0" v:shadowOffsetY="-3" v:shadowType="1"
					transform="matrix(1,0,0,1,0,3)" class="st1">
				<path d="M9 612 L9 655.25" class="st7"/>
			</g>
			<path d="M9 612 L9 655.25" class="st9"/>
		</g>
		<g id="shape37-117" v:mID="37" v:groupContext="shape" v:layerMember="0" transform="translate(528.75,-274.598)">
			<title>Dynamic connector.37</title>
			<g id="shadow37-118" v:groupContext="shadow" v:shadowOffsetX="0" v:shadowOffsetY="-3" v:shadowType="1"
					transform="matrix(1,0,0,1,0,3)" class="st1">
				<path d="M9 612 L9 655.25" class="st7"/>
			</g>
			<path d="M9 612 L9 655.25" class="st9"/>
		</g>
	</g>
</svg>
